<svg height="512pt" viewBox="0 -19 512 512" width="512pt" xmlns="http://www.w3.org/2000/svg"><path d="m205.773438 474.753906c-113.464844 0-205.773438-92.308594-205.773438-205.773437 0-113.460938 92.308594-205.773438 205.773438-205.773438 36.644531 0 72.628906 9.757813 104.0625 28.21875l12.164062 7.144531-44.96875 88.144532-13.871094-8.765625c-17.144531-10.835938-36.988281-16.5625-57.386718-16.5625-59.328126 0-107.59375 48.265625-107.59375 107.59375 0 59.332031 48.265624 107.597656 107.59375 107.597656 22.417968 0 44.410156-6.925781 61.929687-19.503906 11.457031-8.222657 20.707031-18.679688 27.09375-30.421875l-94.011719-.003906v-93.878907h208.082032l1.425781 13.382813c.808593 7.601562 1.253906 15.707031 1.253906 22.828125 0 113.464843-92.308594 205.773437-205.773437 205.773437zm0-381.609375c-96.957032 0-175.839844 78.878907-175.839844 175.835938s78.882812 175.839843 175.839844 175.839843c96.957031 0 175.835937-78.882812 175.835937-175.839843 0-1.988281-.042969-4.101563-.125-6.277344h-150.765625v34.011719l105.316406.003906-4.84375 18.714844c-6.742187 26.0625-23.089844 49.492187-46.03125 65.960937-22.5625 16.199219-50.753906 25.117188-79.386718 25.117188-75.835938 0-137.53125-61.695313-137.53125-137.53125 0-75.832031 61.695312-137.53125 137.53125-137.53125 20.566406 0 40.703124 4.5625 59.0625 13.300781l17.417968-34.144531c-23.722656-11.457031-49.894531-17.460938-76.480468-17.460938zm0 0"/><path d="m468.773438 166.628906h-80.175782v-43.226562h-43.226562v-80.175782h43.226562v-43.226562h80.175782v43.226562h43.226562v80.175782h-43.226562zm-50.242188-29.9375h20.308594v-43.222656h43.226562v-20.308594h-43.226562v-43.226562h-20.308594v43.226562h-43.226562v20.308594h43.226562zm0 0"/></svg>